<svg width="48" height="32" viewBox="0 0 48 32" fill="none" xmlns="http://www.w3.org/2000/svg">
<path d="M28.875 21.25H19.7972C19.4459 21.2499 19.1058 21.1266 18.8361 20.9015C18.5665 20.6764 18.3844 20.3637 18.3216 20.0181L15.93 6.86594C15.8986 6.69313 15.8076 6.53681 15.6727 6.42425C15.5379 6.31169 15.3678 6.25003 15.1922 6.25H13.5" stroke="black" stroke-width="1.5" stroke-linecap="round" stroke-linejoin="round"/>
<path d="M19.875 25C20.9105 25 21.75 24.1605 21.75 23.125C21.75 22.0895 20.9105 21.25 19.875 21.25C18.8395 21.25 18 22.0895 18 23.125C18 24.1605 18.8395 25 19.875 25Z" stroke="black" stroke-width="1.5" stroke-linecap="round" stroke-linejoin="round"/>
<path d="M28.875 25C29.9105 25 30.75 24.1605 30.75 23.125C30.75 22.0895 29.9105 21.25 28.875 21.25C27.8395 21.25 27 22.0895 27 23.125C27 24.1605 27.8395 25 28.875 25Z" stroke="black" stroke-width="1.5" stroke-linecap="round" stroke-linejoin="round"/>
<path d="M17.8641 17.5H29.6344C29.9857 17.4999 30.3258 17.3766 30.5954 17.1515C30.8651 16.9264 31.0472 16.6137 31.11 16.2681L32.25 10H16.5" stroke="black" stroke-width="1.5" stroke-linecap="round" stroke-linejoin="round"/>
</svg>
