<svg width="41" height="16" viewBox="0 0 41 16" fill="none" xmlns="http://www.w3.org/2000/svg">
<rect width="41" height="16" rx="8" fill="#213FB4"/>
<path d="M8.768 13V4.6H10.028L14.12 10.552V4.6H15.476V13H14.216L10.124 7.048V13H8.768ZM19.7903 13.072C17.8583 13.072 16.6463 11.824 16.6463 9.94C16.6463 8.044 17.8583 6.784 19.6703 6.784C21.4463 6.784 22.6343 7.912 22.6703 9.712C22.6703 9.868 22.6583 10.036 22.6343 10.204H18.0023V10.288C18.0383 11.332 18.6983 12.016 19.7183 12.016C20.5103 12.016 21.0863 11.62 21.2663 10.936H22.5623C22.3463 12.148 21.3143 13.072 19.7903 13.072ZM18.0503 9.256H21.3263C21.2183 8.344 20.5823 7.828 19.6823 7.828C18.8543 7.828 18.1463 8.38 18.0503 9.256ZM23.13 6.856H24.498L25.902 11.56L27.306 6.856H28.494L29.838 11.56L31.29 6.856H32.61L30.57 13H29.178L27.882 8.824L26.538 13H25.134L23.13 6.856Z" fill="white"/>
</svg>
